<svg width="15" height="15" viewBox="0 0 15 15" fill="none" xmlns="http://www.w3.org/2000/svg">
<path d="M3.66666 9.07129C3.66661 8.20848 3.66655 7.41721 3.75327 6.77225C3.8488 6.06169 4.07356 5.31003 4.69179 4.69179C5.31003 4.07356 6.06169 3.8488 6.77225 3.75327C7.41721 3.66655 8.20848 3.66661 9.07129 3.66666L10.5621 3.66667C10.7594 3.66667 10.8581 3.66667 10.9174 3.60279C10.9768 3.53892 10.9697 3.4428 10.9555 3.25056C10.9432 3.08364 10.9275 2.92595 10.9074 2.77696C10.8212 2.13726 10.6488 1.60567 10.2812 1.15776C10.1496 0.997414 10.0026 0.85039 9.84225 0.718801C9.36962 0.330923 8.80382 0.160364 8.1165 0.0791208C7.44702 -1.37041e-05 6.60079 -7.57996e-06 5.53262 1.57255e-07H5.46739C4.39922 -7.7389e-06 3.55298 -1.39922e-05 2.8835 0.0791204C2.19619 0.160363 1.63039 0.330922 1.15776 0.7188C0.997414 0.850389 0.85039 0.997414 0.718801 1.15776C0.330923 1.63039 0.160364 2.19619 0.0791209 2.8835C-1.37041e-05 3.55298 -7.57996e-06 4.39921 1.57255e-07 5.46738V5.53261C-7.7389e-06 6.60078 -1.39922e-05 7.44702 0.0791204 8.1165C0.160363 8.80381 0.330922 9.36961 0.7188 9.84224C0.850389 10.0026 0.997414 10.1496 1.15776 10.2812C1.60567 10.6488 2.13726 10.8212 2.77696 10.9074C2.92594 10.9275 3.08364 10.9432 3.25056 10.9555C3.4428 10.9697 3.53892 10.9768 3.60279 10.9174C3.66666 10.8581 3.66666 10.7594 3.66666 10.5621V9.07129Z" fill="white"/>
<path fill-rule="evenodd" clip-rule="evenodd" d="M7.53568 5.22734C7.58196 5.58024 7.3334 5.90382 6.98051 5.9501C6.55653 6.0057 6.34582 6.0988 6.20761 6.2125C6.08565 6.31283 5.99983 6.4437 5.94294 6.72691C5.87285 7.07585 5.53316 7.30191 5.18422 7.23182C4.83528 7.16173 4.60922 6.82204 4.67931 6.4731C4.77786 5.98245 4.97942 5.55391 5.38879 5.21715C5.79035 4.88681 6.27284 4.74299 6.81293 4.67217C7.16582 4.62589 7.48941 4.87445 7.53568 5.22734ZM11.4642 5.22734C11.5105 4.87445 11.8341 4.62589 12.187 4.67217C12.7271 4.74299 13.2096 4.88681 13.6111 5.21715C14.0205 5.55391 14.222 5.98245 14.3206 6.4731C14.3907 6.82204 14.1646 7.16173 13.8157 7.23182C13.4667 7.30191 13.127 7.07585 13.057 6.72691C13.0001 6.4437 12.9143 6.31283 12.7923 6.2125C12.6541 6.0988 12.4434 6.0057 12.0194 5.9501C11.6665 5.90382 11.4179 5.58024 11.4642 5.22734ZM7.88886 5.31113C7.88886 4.95522 8.17739 4.6667 8.5333 4.6667H10.4666C10.8225 4.6667 11.111 4.95522 11.111 5.31113C11.111 5.66705 10.8225 5.95557 10.4666 5.95557H8.5333C8.17739 5.95557 7.88886 5.66705 7.88886 5.31113ZM5.31112 7.88887C5.66704 7.88887 5.95556 8.1774 5.95556 8.53331V10.4666C5.95556 10.8225 5.66704 11.111 5.31112 11.111C4.95521 11.111 4.66669 10.8225 4.66669 10.4666V8.53331C4.66669 8.1774 4.95521 7.88887 5.31112 7.88887ZM13.6888 7.88887C14.0447 7.88887 14.3332 8.1774 14.3332 8.53331V10.4666C14.3332 10.8225 14.0447 11.111 13.6888 11.111C13.3329 11.111 13.0443 10.8225 13.0443 10.4666V8.53331C13.0443 8.1774 13.3329 7.88887 13.6888 7.88887ZM5.18422 11.7681C5.53316 11.698 5.87285 11.9241 5.94294 12.273C5.99983 12.5562 6.08565 12.6871 6.20761 12.7874C6.34582 12.9011 6.55653 12.9942 6.98051 13.0498C7.3334 13.0961 7.58196 13.4197 7.53568 13.7726C7.48941 14.1255 7.16582 14.374 6.81293 14.3277C6.27284 14.2569 5.79035 14.1131 5.38879 13.7828C4.97942 13.446 4.77786 13.0175 4.67931 12.5268C4.60922 12.1779 4.83528 11.8382 5.18422 11.7681ZM13.8157 11.7681C14.1646 11.8382 14.3907 12.1779 14.3206 12.5268C14.222 13.0175 14.0205 13.446 13.6111 13.7828C13.2096 14.1131 12.7271 14.2569 12.187 14.3278C11.8341 14.374 11.5105 14.1255 11.4642 13.7726C11.4179 13.4197 11.6665 13.0961 12.0194 13.0498C12.4434 12.9942 12.6541 12.9011 12.7923 12.7874C12.9143 12.6871 13.0001 12.5562 13.057 12.273C13.127 11.9241 13.4667 11.698 13.8157 11.7681ZM7.88886 13.6888C7.88886 13.3329 8.17739 13.0444 8.5333 13.0444H10.4666C10.8225 13.0444 11.111 13.3329 11.111 13.6888C11.111 14.0447 10.8225 14.3332 10.4666 14.3332H8.5333C8.17739 14.3332 7.88886 14.0447 7.88886 13.6888Z" fill="white"/>
</svg>
